<?xml version="1.0" encoding="UTF-8" standalone="no"?>
<svg
   width="1280"
   height="720"
   overflow="hidden"
   version="1.1"
   id="svg297"
   sodipodi:docname="khf.svg"
   inkscape:version="1.2.2 (732a01da63, 2022-12-09)"
   xmlns:inkscape="http://www.inkscape.org/namespaces/inkscape"
   xmlns:sodipodi="http://sodipodi.sourceforge.net/DTD/sodipodi-0.dtd"
   xmlns="http://www.w3.org/2000/svg"
   xmlns:svg="http://www.w3.org/2000/svg">
  <sodipodi:namedview
     id="namedview299"
     pagecolor="#ffffff"
     bordercolor="#000000"
     borderopacity="0.25"
     inkscape:showpageshadow="2"
     inkscape:pageopacity="0.0"
     inkscape:pagecheckerboard="0"
     inkscape:deskcolor="#d1d1d1"
     showgrid="false"
     inkscape:zoom="1"
     inkscape:cx="649"
     inkscape:cy="429"
     inkscape:window-width="1920"
     inkscape:window-height="1009"
     inkscape:window-x="1912"
     inkscape:window-y="-8"
     inkscape:window-maximized="1"
     inkscape:current-layer="g295" />
  <defs
     id="defs5">
    <clipPath
       id="clip0">
      <rect
         x="0"
         y="0"
         width="1280"
         height="720"
         id="rect2" />
    </clipPath>
  </defs>
  <g
     clip-path="url(#clip0)"
     id="g295">
    <rect
       x="0"
       y="0"
       width="1280"
       height="720"
       fill="#5ACAE0"
       id="rect7" />
    <g
       id="g1293">
      <rect
         x="517"
         y="319.4628"
         width="153"
         height="400.5372"
         fill="#c6f0fa"
         id="rect165"
         style="stroke-width:0.9896" />
      <rect
         x="512.76862"
         y="335"
         width="27.231405"
         height="385"
         fill="#3a364c"
         id="rect167"
         style="stroke-width:1.08811" />
      <rect
         x="647"
         y="335"
         width="23"
         height="385"
         fill="#3A364C"
         id="rect169" />
      <rect
         x="513.82642"
         y="313"
         width="156.17355"
         height="23"
         fill="#3a364c"
         id="rect171"
         style="stroke-width:0.989046" />
      <path
         d="M525.256 366.666 540.666 351.256 593.5 404.091 646.334 351.256 661.744 366.666 608.909 419.5 661.744 472.334 646.334 487.744 593.5 434.909 540.666 487.744 525.256 472.334 578.091 419.5Z"
         fill="#3A364C"
         fill-rule="evenodd"
         id="path173" />
      <path
         d="M525.305 483.409 540.616 468.032 593.5 520.689 646.384 468.032 661.695 483.409 608.877 536 661.695 588.591 646.384 603.968 593.5 551.31 540.616 603.968 525.305 588.591 578.123 536Z"
         fill="#3A364C"
         fill-rule="evenodd"
         id="path175" />
      <path
         d="M525.305 607.409 540.616 592.032 593.5 644.689 646.384 592.032 661.695 607.409 608.877 660 661.695 712.591 646.384 727.968 593.5 675.31 540.616 727.968 525.305 712.591 578.123 660Z"
         fill="#3A364C"
         fill-rule="evenodd"
         id="path177" />
    </g>
    <path
       d="M45.8252 126 120.183 126 166.008 171.825 166.008 720 166.008 720 0 720 0 720 0 171.825Z"
       fill="#DFD195"
       fill-rule="evenodd"
       id="path9" />
    <rect
       x="18"
       y="185"
       width="19"
       height="536"
       fill="#C6F0FA"
       id="rect11" />
    <rect
       x="55"
       y="185"
       width="19"
       height="536"
       fill="#C6F0FA"
       id="rect13" />
    <rect
       x="92"
       y="185"
       width="20"
       height="536"
       fill="#C6F0FA"
       id="rect15" />
    <rect
       x="129"
       y="185"
       width="19"
       height="536"
       fill="#C6F0FA"
       id="rect17" />
    <g
       aria-label="PVC"
       transform="matrix(1.1419432,0,0,1.1419432,61.605516,154.88609)"
       id="text19"
       style="font-size:21px;font-family:'Parisine Office';-inkscape-font-specification:'Parisine Office, Normal';fill:#0d37e9">
      <path
         d="m 11.256,-10.374 q 0,1.491 -0.546,2.436 -0.546,0.924 -1.407,1.47 -0.861,0.525 -1.932,0.735 -1.05,0.189 -2.079,0.189 H 3.738 V 0 H 1.659 v -14.826 h 3.612 q 0.462,0 1.092,0.042 0.63,0.021 1.302,0.168 0.672,0.126 1.302,0.42 0.651,0.273 1.155,0.777 0.504,0.483 0.819,1.239 0.315,0.735 0.315,1.806 z m -2.079,0.126 q 0,-0.945 -0.357,-1.512 -0.357,-0.567 -0.903,-0.861 -0.546,-0.315 -1.218,-0.399 -0.672,-0.105 -1.323,-0.105 H 3.738 v 5.838 h 1.554 q 0.777,0 1.47,-0.126 0.714,-0.147 1.239,-0.462 0.546,-0.336 0.861,-0.903 0.315,-0.588 0.315,-1.47 z"
         id="path3275" />
      <path
         d="m 19.341,0.042 h -2.163 l -5.25,-14.868 h 2.205 l 3.045,8.925 q 0.168,0.504 0.336,1.05 0.168,0.525 0.315,1.029 0.147,0.504 0.252,0.945 0.126,0.42 0.21,0.735 h 0.042 q 0.168,-0.546 0.462,-1.554 0.294,-1.029 0.672,-2.163 l 3.108,-8.967 h 2.058 z"
         id="path3277" />
      <path
         d="m 36.687012,-1.071 q -0.798,0.63 -1.953,1.029 -1.134,0.399 -2.31,0.399 -1.68,0 -2.982,-0.588 -1.302,-0.609 -2.205,-1.638 -0.903,-1.05 -1.365,-2.415 -0.462,-1.386 -0.462,-2.961 0,-1.47 0.42,-2.898 0.42,-1.428 1.281,-2.562 0.861,-1.134 2.163,-1.827 1.323,-0.693 3.129,-0.693 2.646,0 4.263,1.365 l -0.84,1.68 q -0.651,-0.546 -1.47,-0.882 -0.798,-0.336 -1.848,-0.336 -1.323,0 -2.268,0.546 -0.945,0.546 -1.554,1.428 -0.588,0.882 -0.861,1.974 -0.273,1.092 -0.273,2.163 0,1.239 0.357,2.31 0.378,1.05 1.05,1.827 0.672,0.777 1.596,1.239 0.945,0.441 2.1,0.441 1.008,0 1.848,-0.336 0.861,-0.357 1.47,-0.882 z"
         id="path3279" />
    </g>
    <g
       aria-label="HOTEL"
       id="text21"
       style="font-size:21.0627px;font-family:Brusseline;-inkscape-font-specification:'Brusseline, Normal';fill:#0d37e9;stroke-width:1.00299">
      <path
         d="m 53.499999,174.89198 v -14.63487 h 2.190603 v 6.17071 h 6.55124 v -6.17071 h 2.211172 v 14.63487 h -2.211172 v -6.71579 h -6.55124 v 6.71579 z"
         id="path6860" />
      <path
         d="m 67.33268,167.55912 q 0,-2.1906 0.771339,-3.88755 0.771339,-1.69695 2.303733,-2.68426 Q 71.95043,160 74.038188,160 q 2.098043,0 3.620152,0.99759 1.522109,0.98732 2.272879,2.67398 0.761055,1.67638 0.761055,3.82584 -0.02057,3.50702 -1.810076,5.57421 -1.789507,2.05691 -4.905717,2.05691 -2.087758,0 -3.599582,-0.96675 -1.511825,-0.96674 -2.27288,-2.66369 -0.761054,-1.69695 -0.771339,-3.93897 z m 2.303733,-0.0206 q 0,0.89475 0.154268,1.7278 0.154268,0.83305 0.493657,1.5941 0.349674,0.76106 0.843331,1.3267 0.503941,0.56565 1.234142,0.90504 0.740486,0.32911 1.635239,0.32911 0.894754,0 1.635239,-0.32911 0.740486,-0.33939 1.234143,-0.90504 0.503941,-0.56564 0.84333,-1.3267 0.349674,-0.76105 0.503942,-1.5941 0.164552,-0.84333 0.164552,-1.74837 0,-0.87418 -0.164552,-1.69695 -0.154268,-0.82276 -0.503942,-1.57353 -0.339389,-0.76105 -0.84333,-1.3267 -0.493657,-0.56565 -1.234143,-0.89475 -0.740485,-0.33939 -1.635239,-0.33939 -0.894753,0 -1.635239,0.33939 -0.740485,0.3291 -1.244427,0.89475 -0.493657,0.56565 -0.833046,1.3267 -0.339389,0.75077 -0.493657,1.58382 -0.154268,0.82276 -0.154268,1.70723 z"
         id="path6862" />
      <path
         d="m 81.29906,161.98491 v -1.7278 h 10.994153 v 1.7278 h -4.401775 v 12.90707 h -2.190603 v -12.90707 z"
         id="path6864" />
      <path
         d="m 94.432394,174.89198 v -14.63487 h 7.877946 v 1.70723 h -5.687342 v 4.42234 h 5.203972 v 1.67638 h -5.203972 v 5.10112 h 5.923882 v 1.7278 z"
         id="path6866" />
      <path
         d="m 105.42655,174.89198 v -14.63487 h 2.1906 v 12.90707 h 5.88275 v 1.7278 z"
         id="path6868" />
    </g>
    <rect
       x="166"
       y="411"
       width="146"
       height="309"
       fill="#B2B2B2"
       id="rect23" />
    <path
       d="M173 475C173 446.281 181.954 423 193 423 204.046 423 213 446.281 213 475 213 503.719 204.046 527 193 527 181.954 527 173 503.719 173 475Z"
       fill="#C6F0FA"
       fill-rule="evenodd"
       id="path25" />
    <path
       d="M220 475C220 446.281 225.596 423 232.5 423 239.404 423 245 446.281 245 475 245 503.719 239.404 527 232.5 527 225.596 527 220 503.719 220 475Z"
       fill="#C6F0FA"
       fill-rule="evenodd"
       id="path27" />
    <path
       d="M254 475C254 446.281 260.94 423 269.5 423 278.06 423 285 446.281 285 475 285 503.719 278.06 527 269.5 527 260.94 527 254 503.719 254 475Z"
       fill="#C6F0FA"
       fill-rule="evenodd"
       id="path29" />
    <path
       d="M292 475C292 446.281 295.358 423 299.5 423 303.642 423 307 446.281 307 475 307 503.719 303.642 527 299.5 527 295.358 527 292 503.719 292 475Z"
       fill="#C6F0FA"
       fill-rule="evenodd"
       id="path31" />
    <rect
       x="169"
       y="472"
       width="140"
       height="98"
       fill="#B2B2B2"
       id="rect33" />
    <rect
       x="193"
       y="370"
       width="44"
       height="41"
       fill="#7B450F"
       id="rect35" />
    <path
       d="M186 370 214.5 350 243 370Z"
       fill="#BEB5AA"
       fill-rule="evenodd"
       id="path37" />
    <rect
       x="176"
       y="491"
       width="15"
       height="21"
       fill="#C6F0FA"
       id="rect39" />
    <rect
       x="199"
       y="491"
       width="14"
       height="21"
       fill="#C6F0FA"
       id="rect41" />
    <rect
       x="221"
       y="491"
       width="14"
       height="21"
       fill="#C6F0FA"
       id="rect43" />
    <rect
       x="243"
       y="491"
       width="14"
       height="21"
       fill="#C6F0FA"
       id="rect45" />
    <rect
       x="265"
       y="491"
       width="14"
       height="21"
       fill="#C6F0FA"
       id="rect47" />
    <rect
       x="287"
       y="491"
       width="15"
       height="21"
       fill="#C6F0FA"
       id="rect49" />
    <rect
       x="176"
       y="519"
       width="15"
       height="22"
       fill="#C6F0FA"
       id="rect51" />
    <rect
       x="199"
       y="519"
       width="14"
       height="22"
       fill="#C6F0FA"
       id="rect53" />
    <rect
       x="221"
       y="519"
       width="14"
       height="22"
       fill="#C6F0FA"
       id="rect55" />
    <rect
       x="243"
       y="519"
       width="14"
       height="22"
       fill="#C6F0FA"
       id="rect57" />
    <rect
       x="265"
       y="519"
       width="14"
       height="22"
       fill="#C6F0FA"
       id="rect59" />
    <rect
       x="287"
       y="519"
       width="15"
       height="22"
       fill="#C6F0FA"
       id="rect61" />
    <rect
       x="176"
       y="548"
       width="15"
       height="21"
       fill="#C6F0FA"
       id="rect63" />
    <rect
       x="199"
       y="548"
       width="14"
       height="21"
       fill="#C6F0FA"
       id="rect65" />
    <rect
       x="221"
       y="548"
       width="14"
       height="21"
       fill="#C6F0FA"
       id="rect67" />
    <rect
       x="243"
       y="548"
       width="14"
       height="21"
       fill="#C6F0FA"
       id="rect69" />
    <rect
       x="265"
       y="548"
       width="14"
       height="21"
       fill="#C6F0FA"
       id="rect71" />
    <rect
       x="287"
       y="548"
       width="15"
       height="21"
       fill="#C6F0FA"
       id="rect73" />
    <rect
       x="176"
       y="587"
       width="15"
       height="21"
       fill="#C6F0FA"
       id="rect75" />
    <rect
       x="199"
       y="587"
       width="14"
       height="21"
       fill="#C6F0FA"
       id="rect77" />
    <rect
       x="221"
       y="587"
       width="14"
       height="21"
       fill="#C6F0FA"
       id="rect79" />
    <rect
       x="243"
       y="587"
       width="14"
       height="21"
       fill="#C6F0FA"
       id="rect81" />
    <rect
       x="265"
       y="587"
       width="14"
       height="21"
       fill="#C6F0FA"
       id="rect83" />
    <rect
       x="287"
       y="587"
       width="15"
       height="21"
       fill="#C6F0FA"
       id="rect85" />
    <rect
       x="176"
       y="616"
       width="15"
       height="21"
       fill="#C6F0FA"
       id="rect87" />
    <rect
       x="199"
       y="616"
       width="14"
       height="21"
       fill="#C6F0FA"
       id="rect89" />
    <rect
       x="221"
       y="616"
       width="14"
       height="21"
       fill="#C6F0FA"
       id="rect91" />
    <rect
       x="243"
       y="616"
       width="14"
       height="21"
       fill="#C6F0FA"
       id="rect93" />
    <rect
       x="265"
       y="616"
       width="14"
       height="21"
       fill="#C6F0FA"
       id="rect95" />
    <rect
       x="287"
       y="616"
       width="15"
       height="21"
       fill="#C6F0FA"
       id="rect97" />
    <rect
       x="176"
       y="644"
       width="15"
       height="21"
       fill="#C6F0FA"
       id="rect99" />
    <rect
       x="199"
       y="644"
       width="14"
       height="21"
       fill="#C6F0FA"
       id="rect101" />
    <rect
       x="221"
       y="644"
       width="14"
       height="21"
       fill="#C6F0FA"
       id="rect103" />
    <rect
       x="243"
       y="644"
       width="14"
       height="21"
       fill="#C6F0FA"
       id="rect105" />
    <rect
       x="265"
       y="644"
       width="14"
       height="21"
       fill="#C6F0FA"
       id="rect107" />
    <rect
       x="287"
       y="644"
       width="15"
       height="21"
       fill="#C6F0FA"
       id="rect109" />
    <rect
       x="176"
       y="682"
       width="15"
       height="22"
       fill="#C6F0FA"
       id="rect111" />
    <rect
       x="199"
       y="682"
       width="14"
       height="22"
       fill="#C6F0FA"
       id="rect113" />
    <rect
       x="221"
       y="682"
       width="14"
       height="22"
       fill="#C6F0FA"
       id="rect115" />
    <rect
       x="243"
       y="682"
       width="14"
       height="22"
       fill="#C6F0FA"
       id="rect117" />
    <rect
       x="265"
       y="682"
       width="14"
       height="22"
       fill="#C6F0FA"
       id="rect119" />
    <rect
       x="287"
       y="682"
       width="15"
       height="22"
       fill="#C6F0FA"
       id="rect121" />
    <rect
       x="176"
       y="711"
       width="15"
       height="21"
       fill="#C6F0FA"
       id="rect123" />
    <rect
       x="199"
       y="711"
       width="14"
       height="21"
       fill="#C6F0FA"
       id="rect125" />
    <rect
       x="221"
       y="711"
       width="14"
       height="21"
       fill="#C6F0FA"
       id="rect127" />
    <rect
       x="243"
       y="711"
       width="14"
       height="21"
       fill="#C6F0FA"
       id="rect129" />
    <rect
       x="265"
       y="711"
       width="14"
       height="21"
       fill="#C6F0FA"
       id="rect131" />
    <rect
       x="287"
       y="711"
       width="15"
       height="21"
       fill="#C6F0FA"
       id="rect133" />
    <rect
       x="350"
       y="258"
       width="167"
       height="462"
       fill="#E9CAB1"
       id="rect135" />
    <path
       d="m 402.834,113 h 61.332 v 34.689 h -0.215 L 517,259 H 350 l 53.049,-111.311 h -0.215 z"
       fill="#dcfda1"
       fill-rule="evenodd"
       id="path137" />
    <rect
       x="359"
       y="271"
       width="149"
       height="22"
       fill="#C6F0FA"
       id="rect139" />
    <rect
       x="359"
       y="306"
       width="149"
       height="22"
       fill="#C6F0FA"
       id="rect141" />
    <rect
       x="359"
       y="342"
       width="149"
       height="22"
       fill="#C6F0FA"
       id="rect143" />
    <rect
       x="359"
       y="377"
       width="149"
       height="22"
       fill="#C6F0FA"
       id="rect145" />
    <rect
       x="359"
       y="413"
       width="149"
       height="22"
       fill="#C6F0FA"
       id="rect147" />
    <rect
       x="359"
       y="448"
       width="149"
       height="22"
       fill="#C6F0FA"
       id="rect149" />
    <rect
       x="359"
       y="484"
       width="149"
       height="22"
       fill="#C6F0FA"
       id="rect151" />
    <rect
       x="359"
       y="519"
       width="149"
       height="22"
       fill="#C6F0FA"
       id="rect153" />
    <rect
       x="359"
       y="555"
       width="149"
       height="22"
       fill="#C6F0FA"
       id="rect155" />
    <rect
       x="359"
       y="590"
       width="149"
       height="22"
       fill="#C6F0FA"
       id="rect157" />
    <rect
       x="359"
       y="626"
       width="149"
       height="22"
       fill="#C6F0FA"
       id="rect159" />
    <rect
       x="359"
       y="661"
       width="149"
       height="22"
       fill="#C6F0FA"
       id="rect161" />
    <rect
       x="359"
       y="697"
       width="149"
       height="22"
       fill="#C6F0FA"
       id="rect163" />
    <rect
       x="727"
       y="477"
       width="364"
       height="243"
       fill="#FDD1A5"
       id="rect179" />
    <rect
       x="981"
       y="187"
       width="110"
       height="297.40497"
       fill="#fdd1a5"
       id="rect181"
       style="stroke-width:1.01269" />
    <path
       d="M981 187 1036 71 1091 187Z"
       fill="#B55E07"
       fill-rule="evenodd"
       id="path183" />
    <rect
       x="998.5"
       y="211.5"
       width="75.9999"
       height="76"
       stroke="#000000"
       stroke-width="3"
       stroke-miterlimit="8"
       fill="#FFFEE2"
       id="rect185" />
    <g
       id="g1753"
       transform="translate(0,3.7519531)">
      <g
         aria-label="PVC"
         id="text187"
         style="font-weight:bold;font-size:24px;font-family:ClearviewATT;-inkscape-font-specification:'ClearviewATT, Bold'">
        <path
           d="m 1014.1328,242 v -15.89063 q 2.9766,-0.30468 5.707,-0.30468 6.7383,0 6.7383,5.13281 0,2.51953 -1.3828,3.94922 -1.3711,1.42969 -4.3242,1.42969 h -3.2344 V 242 Z m 3.5039,-8.42578 h 2.4961 q 0.5742,0 0.9375,-0.0352 0.375,-0.0352 0.8086,-0.17578 0.4336,-0.14062 0.6797,-0.39844 0.2578,-0.26953 0.4219,-0.75 0.1757,-0.49218 0.1757,-1.18359 0,-1.34766 -0.7617,-1.88672 -0.75,-0.53906 -2.5312,-0.53906 -1.0664,0 -2.2266,0.0937 z"
           id="path3084" />
        <path
           d="m 1027.9492,225.99219 h 3.6914 l 3.5742,11.92968 h 0.094 l 3.5391,-11.92968 h 3.6445 L 1037.0195,242 h -3.5976 z"
           id="path3086" />
        <path
           d="m 1043.8516,233.89062 q 0,-2.44921 0.9023,-4.27734 0.9024,-1.83984 2.6719,-2.85937 1.7695,-1.03125 4.2187,-1.03125 1.8047,0 3.2813,0.64453 1.4765,0.64453 2.8476,2.02734 l -2.1445,2.22656 q -0.9023,-1.00781 -1.8164,-1.47656 -0.9141,-0.46875 -2.0156,-0.46875 -4.3008,0 -4.3008,5.23828 0,2.61328 1.043,4.03125 1.0547,1.41797 3.2343,1.41797 2.2032,0 4.1954,-1.99219 l 1.8984,2.32032 q -2.7188,2.57812 -6.1289,2.57812 -2.0156,0 -3.5391,-0.59766 -1.5117,-0.60937 -2.4609,-1.72265 -0.9492,-1.125 -1.418,-2.63672 -0.4687,-1.52344 -0.4687,-3.42188 z"
           id="path3088" />
      </g>
      <g
         aria-label="CITY"
         id="text189"
         style="font-weight:bold;font-size:24px;font-family:ClearviewATT;-inkscape-font-specification:'ClearviewATT, Bold'">
        <path
           d="m 1010.5937,257.39453 q 0,-2.44922 0.9024,-4.27734 0.9023,-1.83985 2.6719,-2.85938 1.7695,-1.03125 4.2187,-1.03125 1.8047,0 3.2813,0.64453 1.4765,0.64453 2.8476,2.02735 l -2.1445,2.22656 q -0.9024,-1.00781 -1.8164,-1.47656 -0.9141,-0.46875 -2.0156,-0.46875 -4.3008,0 -4.3008,5.23828 0,2.61328 1.0429,4.03125 1.0547,1.41797 3.2344,1.41797 2.2031,0 4.1953,-1.99219 l 1.8985,2.32031 q -2.7188,2.57813 -6.1289,2.57813 -2.0157,0 -3.5391,-0.59766 -1.5117,-0.60937 -2.4609,-1.72266 -0.9493,-1.125 -1.418,-2.63671 -0.4688,-1.52344 -0.4688,-3.42188 z"
           id="path3091" />
        <path
           d="m 1026.9531,265.50391 v -16.00782 h 3.5039 v 16.00782 z"
           id="path3093" />
        <path
           d="m 1032.543,252.47266 v -2.97657 h 12.5039 v 2.97657 h -4.5117 v 13.03125 h -3.5039 v -13.03125 z"
           id="path3095" />
        <path
           d="m 1045.9961,249.49609 h 4.0312 l 3.7266,6.64453 3.7852,-6.64453 h 3.8672 l -5.9297,9.71485 v 6.29297 h -3.5039 v -6.21094 z"
           id="path3097" />
      </g>
    </g>
    <rect
       x="742"
       y="511"
       width="21"
       height="175"
       fill="#C6F0FA"
       id="rect191" />
    <rect
       x="781"
       y="511"
       width="21"
       height="175"
       fill="#C6F0FA"
       id="rect193" />
    <rect
       x="820"
       y="511"
       width="21"
       height="175"
       fill="#C6F0FA"
       id="rect195" />
    <rect
       x="860"
       y="511"
       width="20"
       height="175"
       fill="#C6F0FA"
       id="rect197" />
    <rect
       x="899"
       y="511"
       width="20"
       height="175"
       fill="#C6F0FA"
       id="rect199" />
    <rect
       x="938"
       y="511"
       width="20"
       height="175"
       fill="#C6F0FA"
       id="rect201" />
    <rect
       x="977"
       y="511"
       width="21"
       height="175"
       fill="#C6F0FA"
       id="rect203" />
    <rect
       x="1016"
       y="511"
       width="21"
       height="175"
       fill="#C6F0FA"
       id="rect205" />
    <rect
       x="1055"
       y="511"
       width="21"
       height="175"
       fill="#C6F0FA"
       id="rect207" />
    <rect
       x="1043"
       y="306"
       width="29"
       height="24"
       fill="#C6F0FA"
       id="rect209" />
    <rect
       x="1043"
       y="340"
       width="29"
       height="24"
       fill="#C6F0FA"
       id="rect211" />
    <rect
       x="1043"
       y="374"
       width="29"
       height="23"
       fill="#C6F0FA"
       id="rect213" />
    <rect
       x="1043"
       y="408"
       width="29"
       height="23"
       fill="#C6F0FA"
       id="rect215" />
    <rect
       x="1043"
       y="442"
       width="29"
       height="23"
       fill="#C6F0FA"
       id="rect217" />
    <rect
       x="1002"
       y="307"
       width="29"
       height="23"
       fill="#C6F0FA"
       id="rect219" />
    <rect
       x="1002"
       y="341"
       width="29"
       height="23"
       fill="#C6F0FA"
       id="rect221" />
    <rect
       x="1002"
       y="375"
       width="29"
       height="23"
       fill="#C6F0FA"
       id="rect223" />
    <rect
       x="1002"
       y="409"
       width="29"
       height="23"
       fill="#C6F0FA"
       id="rect225" />
    <rect
       x="1002"
       y="443"
       width="29"
       height="23"
       fill="#C6F0FA"
       id="rect227" />
    <path
       d="M1167.89 236C1178.32 236 1186.78 244.469 1186.78 254.917L1186.78 273.834 1242.22 273.834 1242.22 254.917C1242.22 244.469 1250.68 236 1261.11 236 1271.54 236 1280 244.469 1280 254.917L1280 273.834 1280 720 1149 720 1149 273.834 1149 254.917C1149 244.469 1157.46 236 1167.89 236Z"
       fill="#A84646"
       fill-rule="evenodd"
       id="path229" />
    <path
       d="M1157.5 308C1157.5 295.021 1162.42 284.5 1168.5 284.5 1174.58 284.5 1179.5 295.021 1179.5 308 1179.5 320.979 1174.58 331.5 1168.5 331.5 1162.42 331.5 1157.5 320.979 1157.5 308Z"
       stroke="#D99449"
       stroke-width="1.33333"
       stroke-miterlimit="8"
       fill="#C6F0FA"
       fill-rule="evenodd"
       id="path231" />
    <path
       d="M1188.5 308C1188.5 295.021 1193.42 284.5 1199.5 284.5 1205.58 284.5 1210.5 295.021 1210.5 308 1210.5 320.979 1205.58 331.5 1199.5 331.5 1193.42 331.5 1188.5 320.979 1188.5 308Z"
       stroke="#D99449"
       stroke-width="1.33333"
       stroke-miterlimit="8"
       fill="#C6F0FA"
       fill-rule="evenodd"
       id="path233" />
    <path
       d="M1219.5 308C1219.5 295.021 1224.42 284.5 1230.5 284.5 1236.58 284.5 1241.5 295.021 1241.5 308 1241.5 320.979 1236.58 331.5 1230.5 331.5 1224.42 331.5 1219.5 320.979 1219.5 308Z"
       stroke="#D99449"
       stroke-width="1.33333"
       stroke-miterlimit="8"
       fill="#C6F0FA"
       fill-rule="evenodd"
       id="path235" />
    <path
       d="M1250.5 308C1250.5 295.021 1255.42 284.5 1261.5 284.5 1267.58 284.5 1272.5 295.021 1272.5 308 1272.5 320.979 1267.58 331.5 1261.5 331.5 1255.42 331.5 1250.5 320.979 1250.5 308Z"
       stroke="#D99449"
       stroke-width="1.33333"
       stroke-miterlimit="8"
       fill="#C6F0FA"
       fill-rule="evenodd"
       id="path237" />
    <rect
       x="1157.5"
       y="340.5"
       width="22"
       height="48"
       stroke="#D99449"
       stroke-width="1.33333"
       stroke-miterlimit="8"
       fill="#C6F0FA"
       id="rect239" />
    <rect
       x="1188.5"
       y="340.5"
       width="22"
       height="48"
       stroke="#D99449"
       stroke-width="1.33333"
       stroke-miterlimit="8"
       fill="#C6F0FA"
       id="rect241" />
    <rect
       x="1219.5"
       y="340.5"
       width="22"
       height="48"
       stroke="#D99449"
       stroke-width="1.33333"
       stroke-miterlimit="8"
       fill="#C6F0FA"
       id="rect243" />
    <rect
       x="1250.5"
       y="340.5"
       width="22"
       height="48"
       stroke="#D99449"
       stroke-width="1.33333"
       stroke-miterlimit="8"
       fill="#C6F0FA"
       id="rect245" />
    <rect
       x="1157.5"
       y="396.5"
       width="22"
       height="48"
       stroke="#D99449"
       stroke-width="1.33333"
       stroke-miterlimit="8"
       fill="#C6F0FA"
       id="rect247" />
    <rect
       x="1188.5"
       y="396.5"
       width="22"
       height="48"
       stroke="#D99449"
       stroke-width="1.33333"
       stroke-miterlimit="8"
       fill="#C6F0FA"
       id="rect249" />
    <rect
       x="1219.5"
       y="396.5"
       width="22"
       height="48"
       stroke="#D99449"
       stroke-width="1.33333"
       stroke-miterlimit="8"
       fill="#C6F0FA"
       id="rect251" />
    <rect
       x="1250.5"
       y="396.5"
       width="22"
       height="48"
       stroke="#D99449"
       stroke-width="1.33333"
       stroke-miterlimit="8"
       fill="#C6F0FA"
       id="rect253" />
    <rect
       x="1157.5"
       y="452.5"
       width="22"
       height="48"
       stroke="#D99449"
       stroke-width="1.33333"
       stroke-miterlimit="8"
       fill="#C6F0FA"
       id="rect255" />
    <rect
       x="1188.5"
       y="452.5"
       width="22"
       height="48"
       stroke="#D99449"
       stroke-width="1.33333"
       stroke-miterlimit="8"
       fill="#C6F0FA"
       id="rect257" />
    <rect
       x="1219.5"
       y="452.5"
       width="22"
       height="48"
       stroke="#D99449"
       stroke-width="1.33333"
       stroke-miterlimit="8"
       fill="#C6F0FA"
       id="rect259" />
    <rect
       x="1250.5"
       y="452.5"
       width="22"
       height="48"
       stroke="#D99449"
       stroke-width="1.33333"
       stroke-miterlimit="8"
       fill="#C6F0FA"
       id="rect261" />
    <rect
       x="1157.5"
       y="509.5"
       width="22"
       height="47"
       stroke="#D99449"
       stroke-width="1.33333"
       stroke-miterlimit="8"
       fill="#C6F0FA"
       id="rect263" />
    <rect
       x="1188.5"
       y="509.5"
       width="22"
       height="47"
       stroke="#D99449"
       stroke-width="1.33333"
       stroke-miterlimit="8"
       fill="#C6F0FA"
       id="rect265" />
    <rect
       x="1219.5"
       y="509.5"
       width="22"
       height="47"
       stroke="#D99449"
       stroke-width="1.33333"
       stroke-miterlimit="8"
       fill="#C6F0FA"
       id="rect267" />
    <rect
       x="1250.5"
       y="509.5"
       width="22"
       height="47"
       stroke="#D99449"
       stroke-width="1.33333"
       stroke-miterlimit="8"
       fill="#C6F0FA"
       id="rect269" />
    <rect
       x="1158.5"
       y="565.5"
       width="22"
       height="48"
       stroke="#D99449"
       stroke-width="1.33333"
       stroke-miterlimit="8"
       fill="#C6F0FA"
       id="rect271" />
    <rect
       x="1188.5"
       y="565.5"
       width="22"
       height="48"
       stroke="#D99449"
       stroke-width="1.33333"
       stroke-miterlimit="8"
       fill="#C6F0FA"
       id="rect273" />
    <rect
       x="1220.5"
       y="565.5"
       width="22"
       height="48"
       stroke="#D99449"
       stroke-width="1.33333"
       stroke-miterlimit="8"
       fill="#C6F0FA"
       id="rect275" />
    <rect
       x="1250.5"
       y="565.5"
       width="22"
       height="48"
       stroke="#D99449"
       stroke-width="1.33333"
       stroke-miterlimit="8"
       fill="#C6F0FA"
       id="rect277" />
    <rect
       x="1158.5"
       y="621.5"
       width="22"
       height="48"
       stroke="#D99449"
       stroke-width="1.33333"
       stroke-miterlimit="8"
       fill="#C6F0FA"
       id="rect279" />
    <rect
       x="1188.5"
       y="621.5"
       width="22"
       height="48"
       stroke="#D99449"
       stroke-width="1.33333"
       stroke-miterlimit="8"
       fill="#C6F0FA"
       id="rect281" />
    <rect
       x="1220.5"
       y="621.5"
       width="22"
       height="48"
       stroke="#D99449"
       stroke-width="1.33333"
       stroke-miterlimit="8"
       fill="#C6F0FA"
       id="rect283" />
    <rect
       x="1250.5"
       y="621.5"
       width="22"
       height="48"
       stroke="#D99449"
       stroke-width="1.33333"
       stroke-miterlimit="8"
       fill="#C6F0FA"
       id="rect285" />
    <rect
       x="1158.5"
       y="677.5"
       width="22"
       height="48"
       stroke="#D99449"
       stroke-width="1.33333"
       stroke-miterlimit="8"
       fill="#C6F0FA"
       id="rect287" />
    <rect
       x="1188.5"
       y="677.5"
       width="22"
       height="48"
       stroke="#D99449"
       stroke-width="1.33333"
       stroke-miterlimit="8"
       fill="#C6F0FA"
       id="rect289" />
    <rect
       x="1220.5"
       y="677.5"
       width="22"
       height="48"
       stroke="#D99449"
       stroke-width="1.33333"
       stroke-miterlimit="8"
       fill="#C6F0FA"
       id="rect291" />
    <rect
       x="1250.5"
       y="677.5"
       width="22"
       height="48"
       stroke="#D99449"
       stroke-width="1.33333"
       stroke-miterlimit="8"
       fill="#C6F0FA"
       id="rect293" />
    <g
       id="g5144"
       transform="matrix(0.79772905,0,0,0.79772905,78.535429,-14.173949)">
      <rect
         style="fill:#7b868c;fill-opacity:1;stroke-width:0.269597;stroke-opacity:0"
         id="rect1847"
         width="150"
         height="40"
         x="-4.4408921e-16"
         y="80"
         ry="20" />
      <rect
         style="fill:#7b868c;fill-opacity:1;stroke-width:0.282079;stroke-opacity:0"
         id="rect3625"
         width="25"
         height="39.781948"
         x="-25.737377"
         y="65.153824"
         ry="13.991989"
         transform="matrix(1,0,0.47535136,0.87979605,0,0)"
         rx="0" />
      <ellipse
         style="fill:#156ab7;fill-opacity:1;stroke-width:0.264583;stroke-opacity:0"
         id="path3627"
         cx="129.15379"
         cy="95.118813"
         rx="9"
         ry="8" />
    </g>
  </g>
</svg>
