<?xml version="1.0" encoding="UTF-8" standalone="no"?>
<svg
   xmlns:dc="http://purl.org/dc/elements/1.1/"
   xmlns:cc="http://creativecommons.org/ns#"
   xmlns:rdf="http://www.w3.org/1999/02/22-rdf-syntax-ns#"
   xmlns:svg="http://www.w3.org/2000/svg"
   xmlns="http://www.w3.org/2000/svg"
   viewBox="0 0 477.33334 594.66669"
   height="594.66669"
   width="477.33334"
   xml:space="preserve"
   id="svg2"
   version="1.1"><metadata
     id="metadata8"><rdf:RDF><cc:Work
         rdf:about=""><dc:format>image/svg+xml</dc:format><dc:type
           rdf:resource="http://purl.org/dc/dcmitype/StillImage" /></cc:Work></rdf:RDF></metadata><defs
     id="defs6" /><g
     transform="matrix(1.3333333,0,0,-1.3333333,0,594.66667)"
     id="g10"><g
       transform="scale(0.1)"
       id="g12"><path
         id="path14"
         style="fill:#000000;fill-opacity:1;fill-rule:nonzero;stroke:none"
         d="m 1810.25,4448.25 c -402.8,-0.15 -958.738,-115.17 -1189,-211 -229.82,-95.87 -383.18,-191.72 -431,-431 l -173,-1329 v -1830 h 298 v -287 c -0.5,-350.25 511.68,-350.25 512,0 v 287 h 945 3 983 v -287 c 0.32,-350.25 512.5,-350.25 513,0 v 287 h 297 v 1830 l -173,1329 c -47.82,239.28 -201.18,335.13 -431,431 -230.26,95.83 -786.2,210.85 -1189,211" /><path
         id="path16"
         style="fill:#ffffff;fill-opacity:1;fill-rule:nonzero;stroke:none"
         d="m 3014.25,1221.25 c 135.88,-0.38 245.88,109.64 246,245 -0.12,136 -110.12,246.02 -246,246 -135.48,0.02 -245.49,-110 -245,-246 -0.49,-135.36 109.52,-245.38 245,-245" /><path
         id="path18"
         style="fill:#ffffff;fill-opacity:1;fill-rule:nonzero;stroke:none"
         d="m 571.25,1221.25 c -135.879,-0.38 -245.879,109.64 -246,245 0.121,136 110.121,246.02 246,246 135.48,0.02 245.488,-110 245,-246 0.488,-135.36 -109.52,-245.38 -245,-245" /><path
         id="path20"
         style="fill:#ffffff;fill-opacity:1;fill-rule:nonzero;stroke:none"
         d="m 1774.25,3897.25 h -712 c -143.641,-0.28 -143.641,215.38 0,215 h 713 748 c 143.64,0.38 143.64,-215.28 0,-215 h -749" /><path
         id="path22"
         style="fill:#ffffff;fill-opacity:1;fill-rule:nonzero;stroke:none"
         d="m 1774.25,3679.25 h -1099 c -152.352,-0.02 -192.031,-77.19 -210,-194 l -135,-964 c -12.27,-92.08 14.441,-183.75 142,-184 h 1303 1338 c 127.56,0.25 154.27,91.92 142,184 l -135,964 c -17.97,116.81 -57.65,193.98 -210,194 h -1136" /></g></g></svg>