<?xml version="1.0" encoding="UTF-8" standalone="no"?>
<svg
   viewBox="0 0 589.33331 594.66669"
   height="594.66669"
   width="589.33331"
   xml:space="preserve"
   id="svg2"
   version="1.1"
   sodipodi:docname="logofake.svg"
   inkscape:version="1.2.2 (732a01da63, 2022-12-09)"
   xmlns:inkscape="http://www.inkscape.org/namespaces/inkscape"
   xmlns:sodipodi="http://sodipodi.sourceforge.net/DTD/sodipodi-0.dtd"
   xmlns="http://www.w3.org/2000/svg"
   xmlns:svg="http://www.w3.org/2000/svg"
   xmlns:rdf="http://www.w3.org/1999/02/22-rdf-syntax-ns#"
   xmlns:cc="http://creativecommons.org/ns#"
   xmlns:dc="http://purl.org/dc/elements/1.1/"><sodipodi:namedview
     id="namedview13087"
     pagecolor="#ffffff"
     bordercolor="#000000"
     borderopacity="0.25"
     inkscape:showpageshadow="2"
     inkscape:pageopacity="0.0"
     inkscape:pagecheckerboard="0"
     inkscape:deskcolor="#d1d1d1"
     showgrid="false"
     inkscape:zoom="0.69702912"
     inkscape:cx="297.69201"
     inkscape:cy="24.389225"
     inkscape:window-width="1920"
     inkscape:window-height="1009"
     inkscape:window-x="1912"
     inkscape:window-y="-8"
     inkscape:window-maximized="1"
     inkscape:current-layer="g12" /><metadata
     id="metadata8"><rdf:RDF><cc:Work
         rdf:about=""><dc:format>image/svg+xml</dc:format><dc:type
           rdf:resource="http://purl.org/dc/dcmitype/StillImage" /></cc:Work></rdf:RDF></metadata><defs
     id="defs6"><rect
       x="128.83617"
       y="185.64582"
       width="337.81452"
       height="197.81931"
       id="rect14533" /></defs><g
     transform="matrix(0.13333333,0,0,-0.13333333,0,594.66667)"
     id="g12"><path
       id="path14"
       style="fill:#ffffff;fill-opacity:1;fill-rule:nonzero;stroke:none"
       d="m 2210.25,10.25 c 1213.34,0.3516 2197.19,994.05 2197,2220 0.19,1225.47 -983.66,2219.15 -2197,2219 -1213.82,0.15 -2197.6914,-993.53 -2198,-2219 0.3086,-1225.95 984.18,-2219.6484 2198,-2220" /><path
       id="path16"
       style="fill:#000000;fill-opacity:1;fill-rule:nonzero;stroke:none"
       d="m 2210.25,522.25 c 933.59,0.012 1690.61,764.6 1691,1708 -0.39,942.92 -757.41,1707.49 -1691,1707 -934.07,0.49 -1691.102,-764.08 -1691,-1707 -0.102,-943.4 756.93,-1707.988 1691,-1708" /><g
       aria-label="TLD"
       transform="scale(1,-1)"
       id="text1695"
       style="font-size:4251.97px;font-family:TheSansOfficeLF;-inkscape-font-specification:'TheSansOfficeLF, Normal';text-align:center;text-anchor:middle;stroke-width:7.5;stroke-opacity:0"><path
         d="m 901.67808,-2621.3547 v -121.8009 h 823.54042 v 121.8009 h -344.6413 v 904.5103 h -134.2578 v -904.5103 z"
         style="font-size:1417.32px;font-family:'Montblanc Type';-inkscape-font-specification:'Montblanc Type, Normal';fill:#ffffff"
         id="path4027" /><path
         d="m 1868.473,-1716.8444 v -1026.3112 h 134.2578 v 904.5103 h 485.1276 v 121.8009 z"
         style="font-size:1417.32px;font-family:'Montblanc Type';-inkscape-font-specification:'Montblanc Type, Normal';fill:#ffffff"
         id="path4029" /><path
         d="m 2643.5699,-1716.8444 v -1026.3112 h 281.6647 q 103.1155,0 193.7742,18.6853 91.3507,17.9934 169.5524,65.0528 55.3641,33.2184 98.2712,78.8938 42.9072,45.6753 71.9733,100.3474 29.0661,53.9799 44.2913,116.2645 15.2251,62.2846 15.2251,129.4135 0,63.6686 -13.841,123.8771 -13.149,59.5163 -39.4469,112.8042 -26.298,52.5959 -64.3608,97.5792 -38.0627,44.9833 -86.5063,79.5858 -82.354,57.4402 -186.1617,80.97 -103.8076,22.8376 -236.6813,22.8376 z m 134.2579,-121.8009 h 134.9499 q 92.0427,0 167.4762,-14.5331 75.4336,-14.533 137.0261,-53.2879 36.6787,-23.5297 67.1289,-56.7481 31.1423,-33.2185 52.5959,-74.0495 22.1456,-41.523 33.9105,-89.9666 12.4569,-48.4435 12.4569,-102.4235 0,-56.0561 -13.149,-104.4996 -12.4569,-48.4436 -34.6025,-88.5825 -22.1456,-40.831 -52.5959,-72.6654 -29.7582,-31.8343 -64.3607,-54.672 -33.2184,-22.1456 -70.5892,-35.9866 -36.6787,-13.841 -76.1256,-21.4536 -38.7548,-8.3046 -79.5858,-11.0728 -40.831,-2.7682 -82.354,-2.7682 h -132.1817 z"
         style="font-size:1417.32px;font-family:'Montblanc Type';-inkscape-font-specification:'Montblanc Type, Normal';fill:#ffffff"
         id="path4031" /></g></g></svg>
