<?xml version="1.0" encoding="UTF-8" standalone="no"?>
<svg
   viewBox="0 0 950 950"
   height="950"
   width="950"
   xml:space="preserve"
   id="svg2"
   version="1.1"
   sodipodi:docname="phone.svg"
   inkscape:version="1.2.2 (732a01da63, 2022-12-09)"
   xmlns:inkscape="http://www.inkscape.org/namespaces/inkscape"
   xmlns:sodipodi="http://sodipodi.sourceforge.net/DTD/sodipodi-0.dtd"
   xmlns="http://www.w3.org/2000/svg"
   xmlns:svg="http://www.w3.org/2000/svg"
   xmlns:rdf="http://www.w3.org/1999/02/22-rdf-syntax-ns#"
   xmlns:cc="http://creativecommons.org/ns#"
   xmlns:dc="http://purl.org/dc/elements/1.1/"><sodipodi:namedview
     id="namedview8043"
     pagecolor="#ffffff"
     bordercolor="#000000"
     borderopacity="0.25"
     inkscape:showpageshadow="2"
     inkscape:pageopacity="0.0"
     inkscape:pagecheckerboard="0"
     inkscape:deskcolor="#d1d1d1"
     showgrid="false"
     inkscape:zoom="0.64900833"
     inkscape:cx="153.31082"
     inkscape:cy="506.92724"
     inkscape:window-width="1920"
     inkscape:window-height="1009"
     inkscape:window-x="1912"
     inkscape:window-y="-8"
     inkscape:window-maximized="1"
     inkscape:current-layer="svg2" /><metadata
     id="metadata8"><rdf:RDF><cc:Work
         rdf:about=""><dc:format>image/svg+xml</dc:format><dc:type
           rdf:resource="http://purl.org/dc/dcmitype/StillImage" /></cc:Work></rdf:RDF></metadata><defs
     id="defs6" /><circle
     style="fill:#ffffff;fill-opacity:1"
     id="path846"
     cx="475"
     cy="475"
     r="400" /><g
     transform="matrix(1.1558829,0,0,-1.1558829,355.75467,751.96299)"
     id="g10"
     style="fill:#000000;fill-opacity:1"><g
       transform="scale(0.1)"
       id="g12"
       style="fill:#000000;fill-opacity:1"><path
         id="path14"
         style="fill:#000000;fill-opacity:1;fill-rule:nonzero;stroke:none"
         d="M 1099.25,4775.25 C 875,4750 61.2344,4378.07 37.25,2460.25 12.5,440 875,15 1101.25,19.25 v 1335 c -186.25,-0.31 -223.707,202.43 -266,621 -28.398,276.54 -36.609,619.18 0,960 25.27,238.72 69.75,471.98 265,472 l -1,1368" /><path
         id="path16"
         style="fill:#000000;fill-opacity:1;fill-rule:nonzero;stroke:none"
         d="m 1581.25,17.25 c 86.25,-0.0195 148.11,70.25 148,149 l 1,1 c 0,0 -0.89,1039.62 -1,1040 0.11,82.75 -66.75,147.79 -148,148 h -378 v -1338 c 0,0 377.07,-0.6016 377,0 h 1" /><path
         id="path18"
         style="fill:#000000;fill-opacity:1;fill-rule:nonzero;stroke:none"
         d="m 1581.25,3407.25 c 86.25,-0.02 148.11,70.25 148,149 l 1,1 c 0,0 -0.89,1069.62 -1,1070 0.11,82.75 -66.75,147.79 -148,148 h -378 v -1368 c 0,0 377.07,-0.6 377,0 h 1" /></g></g></svg>
